<?xml version="1.0" encoding="utf-8"?>
<!-- Generator: Adobe Illustrator 27.2.0, SVG Export Plug-In . SVG Version: 6.00 Build 0)  -->
<svg version="1.1" id="Layer_1" xmlns="http://www.w3.org/2000/svg" xmlns:xlink="http://www.w3.org/1999/xlink" x="0px" y="0px"
	 viewBox="0 0 892.18 76.23" style="enable-background:new 0 0 892.18 76.23;" xml:space="preserve">
<style type="text/css">
	.st0{fill:#FFFFFF;}
	.st1{fill:none;stroke:#000000;stroke-width:6;stroke-linecap:square;stroke-miterlimit:10;}
</style>
<g>
	<g>
		<circle cx="38.12" cy="38.12" r="38.12"/>
		<g>
			<path class="st0" d="M29.26,46.08c-4.34-2.05-7.19-1.55-9.21,1.24c-2.11,2.92-2.05,6.8,0.33,9.23c2.67,2.72,6.03,2.98,9.28,1.57
				c5.17-2.24,10.17-4.87,15.26-7.31c1.3-0.62,2.63-1.26,4.02-1.63c2.56-0.68,4.6,0.27,5.07,2.12c0.57,2.26-0.77,4.73-3.1,5.49
				c-1.04,0.34-2.16,0.44-3.57,0.72c2.64,1.64,5.01,1.75,7.25,0.19c2.57-1.79,3.53-4.44,2.97-7.45c-0.5-2.72-2.2-4.58-4.95-5.31
				c-2.89-0.77-5.58-0.04-8.17,1.2c-4.24,2.05-8.44,4.17-12.7,6.19c-1.61,0.76-3.27,1.53-4.99,1.9c-2.67,0.58-4.23-0.36-4.6-2.36
				c-0.43-2.33,1.08-4.86,3.32-5.38C26.52,46.27,27.61,46.26,29.26,46.08z M28.91,21.9c-5.03,4.61-4.46,12.6,0.96,17.38
				c5.51,4.86,13.75,3.96,18.41-2c3.89-4.97,3.17-12.55-1.18-15.61c2.22,5.7,1.82,10.56-3.47,13.98c-3.68,2.38-7.53,2.3-11.11-0.1
				C27.47,32.18,26.8,27.42,28.91,21.9z M41.24,25.72c2.7-2.39,2.87-5.03,2.48-7.72c-0.33-2.26-1.36-4.2-3.72-5.08
				c-2.71-1.01-5.33-0.02-6.75,2.58c-1.71,3.13-0.98,7.76,1.8,9.89c-0.99-3.17-1.58-6.21,1.44-8.21c0.81-0.53,2.62-0.41,3.48,0.15
				C42.97,19.34,41.92,22.37,41.24,25.72z"/>
			<path class="st0" d="M29.26,46.08c-1.65,0.18-2.74,0.19-3.78,0.43c-2.24,0.52-3.76,3.05-3.32,5.38c0.37,2,1.93,2.94,4.6,2.36
				c1.72-0.37,3.38-1.14,4.99-1.9c4.25-2.02,8.46-4.15,12.7-6.19c2.59-1.25,5.28-1.97,8.17-1.2c2.75,0.73,4.45,2.59,4.95,5.31
				c0.55,3.01-0.41,5.67-2.97,7.45c-2.24,1.56-4.61,1.45-7.25-0.19c1.41-0.27,2.53-0.37,3.57-0.72c2.32-0.76,3.67-3.24,3.1-5.49
				c-0.47-1.86-2.51-2.8-5.07-2.12c-1.39,0.37-2.71,1.01-4.02,1.63c-5.09,2.43-10.09,5.07-15.26,7.31
				c-3.25,1.41-6.61,1.15-9.28-1.57c-2.38-2.42-2.44-6.31-0.33-9.23C22.07,44.54,24.91,44.03,29.26,46.08z"/>
			<path class="st0" d="M28.91,21.9c-2.11,5.52-1.43,10.28,3.61,13.66c3.58,2.39,7.43,2.47,11.11,0.1
				c5.29-3.42,5.69-8.28,3.47-13.98c4.34,3.05,5.06,10.64,1.18,15.61c-4.67,5.96-12.91,6.86-18.41,2
				C24.44,34.49,23.87,26.51,28.91,21.9z"/>
			<path class="st0" d="M41.24,25.72c0.68-3.35,1.73-6.38-1.27-8.38c-0.85-0.57-2.67-0.69-3.48-0.15c-3.02,2-2.43,5.04-1.44,8.21
				c-2.78-2.13-3.51-6.76-1.8-9.89c1.42-2.6,4.04-3.6,6.75-2.58c2.36,0.88,3.39,2.82,3.72,5.08C44.1,20.69,43.94,23.33,41.24,25.72z
				"/>
		</g>
	</g>
	<line class="st1" x1="113.78" y1="14.38" x2="113.78" y2="61.85"/>
	<g>
		<path d="M157.95,49.77V29.02h-8.34v-2.59h20v2.59h-8.38v20.76H157.95z"/>
		<path d="M200.85,49.77V39.06h-15.42v10.71h-3.28V26.43h3.28v10.05h15.42V26.43h3.28v23.35H200.85z"/>
		<path d="M218.47,49.77V26.43h17.28v2.59h-14v7.53h13.72v2.59h-13.72v8.05h14v2.59H218.47z"/>
		<path d="M275.4,49.77l-10.6-23.35h3.76l8.9,20.16l8.9-20.16h3.76l-10.64,23.35H275.4z"/>
		<path d="M301.73,49.77V26.43h3.28v23.35H301.73z"/>
		<path d="M334.62,49.77l-6.72-9.28h-5.26v9.28h-3.28V26.43h10.6c4.82,0,8.26,2.73,8.26,7.04c0,4.2-3.24,6.51-6.84,6.79l7.12,9.52
			H334.62z M329.56,29.02h-6.92v8.93h6.92c3.12,0,5.26-1.86,5.26-4.48S332.68,29.02,329.56,29.02z"/>
		<path d="M357.71,49.77V29.02h-8.34v-2.59h20v2.59h-8.38v20.76H357.71z"/>
		<path d="M381.9,26.43h3.28v14.21c0,4.27,2.61,6.97,7.47,6.97s7.47-2.7,7.47-6.97V26.43h3.28v14.25c0,5.81-3.6,9.52-10.75,9.52
			s-10.75-3.75-10.75-9.49V26.43z"/>
		<path d="M435.66,49.77l-2.33-5.18h-13.36l-2.33,5.18H414l10.6-23.35h4.07l10.63,23.35H435.66z M426.65,29.02L420.92,42h11.43
			L426.65,29.02z"/>
		<path d="M450.92,49.77V26.43h3.28v20.76h12.26v2.59H450.92z"/>
		<path d="M504.17,49.77V29.02h-8.34v-2.59h20.01v2.59h-8.38v20.76H504.17z"/>
		<path d="M544.65,49.77l-2.33-5.18h-13.36l-2.33,5.18h-3.64l10.6-23.35h4.07l10.63,23.35H544.65z M535.64,29.02L529.91,42h11.43
			L535.64,29.02z"/>
		<path d="M563.79,49.77V29.02h-8.34v-2.59h20.01v2.59h-8.38v20.76H563.79z"/>
		<path d="M594.5,49.77V29.02h-8.34v-2.59h20v2.59h-8.38v20.76H594.5z"/>
		<path d="M629.65,26.04c7.79,0,13.09,5.18,13.09,12.08s-5.3,12.08-13.09,12.08c-7.83,0-13.09-5.18-13.09-12.08
			S621.82,26.04,629.65,26.04z M629.65,28.63c-5.93,0-9.69,4.03-9.69,9.49c0,5.43,3.76,9.49,9.69,9.49c5.89,0,9.69-4.06,9.69-9.49
			C639.33,32.66,635.54,28.63,629.65,28.63z"/>
		<path d="M668.07,26.04c7.79,0,13.09,5.18,13.09,12.08s-5.3,12.08-13.09,12.08c-7.83,0-13.09-5.18-13.09-12.08
			S660.24,26.04,668.07,26.04z M668.07,28.63c-5.93,0-9.69,4.03-9.69,9.49c0,5.43,3.76,9.49,9.69,9.49c5.89,0,9.69-4.06,9.69-9.49
			C677.76,32.66,673.96,28.63,668.07,28.63z"/>
		<path d="M712.86,49.77V26.43h10.6c5.3,0,8.26,3.22,8.26,7.04s-3.04,7.04-8.26,7.04h-7.31v9.28H712.86z M723.06,29.02h-6.92v8.89
			h6.92c3.12,0,5.26-1.82,5.26-4.45S726.18,29.02,723.06,29.02z"/>
		<path d="M760.14,49.77l-2.33-5.18h-13.36l-2.33,5.18h-3.64l10.6-23.35h4.07l10.63,23.35H760.14z M751.13,29.02L745.4,42h11.43
			L751.13,29.02z"/>
		<path d="M790.66,49.77l-6.72-9.28h-5.26v9.28h-3.28V26.43H786c4.82,0,8.26,2.73,8.26,7.04c0,4.2-3.24,6.51-6.84,6.79l7.12,9.52
			H790.66z M785.6,29.02h-6.92v8.93h6.92c3.12,0,5.26-1.86,5.26-4.48S788.72,29.02,785.6,29.02z"/>
		<path d="M807.62,49.77V26.43h3.28v20.76h12.26v2.59H807.62z"/>
		<path d="M846.64,26.04c7.79,0,13.09,5.18,13.09,12.08s-5.3,12.08-13.09,12.08c-7.83,0-13.09-5.18-13.09-12.08
			S838.81,26.04,846.64,26.04z M846.64,28.63c-5.93,0-9.69,4.03-9.69,9.49c0,5.43,3.76,9.49,9.69,9.49c5.89,0,9.69-4.06,9.69-9.49
			C856.32,32.66,852.53,28.63,846.64,28.63z"/>
		<path d="M888.31,49.77l-6.72-9.28h-5.26v9.28h-3.28V26.43h10.6c4.82,0,8.26,2.73,8.26,7.04c0,4.2-3.24,6.51-6.84,6.79l7.12,9.52
			H888.31z M883.24,29.02h-6.92v8.93h6.92c3.12,0,5.26-1.86,5.26-4.48S886.37,29.02,883.24,29.02z"/>
	</g>
</g>
</svg>
