<?xml version="1.0" encoding="utf-8"?>
<!-- Generator: Adobe Illustrator 27.2.0, SVG Export Plug-In . SVG Version: 6.00 Build 0)  -->
<svg version="1.1" id="Layer_1" xmlns="http://www.w3.org/2000/svg" xmlns:xlink="http://www.w3.org/1999/xlink" x="0px" y="0px"
	 viewBox="0 0 32 32" style="enable-background:new 0 0 32 32;" xml:space="preserve">
<style type="text/css">
	.st0{fill:#FFFFFF;}
</style>
<g>
	<circle cx="16" cy="16" r="16"/>
	<g>
		<path class="st0" d="M12.28,19.34c-1.82-0.86-3.02-0.65-3.87,0.52c-0.89,1.22-0.86,2.86,0.14,3.87c1.12,1.14,2.53,1.25,3.9,0.66
			c2.17-0.94,4.27-2.05,6.41-3.07c0.55-0.26,1.1-0.53,1.69-0.68c1.07-0.28,1.93,0.11,2.13,0.89c0.24,0.95-0.32,1.99-1.3,2.31
			c-0.44,0.14-0.91,0.19-1.5,0.3c1.11,0.69,2.1,0.73,3.04,0.08c1.08-0.75,1.48-1.86,1.25-3.13c-0.21-1.14-0.92-1.92-2.08-2.23
			c-1.21-0.32-2.34-0.02-3.43,0.51c-1.78,0.86-3.54,1.75-5.33,2.6c-0.67,0.32-1.37,0.64-2.1,0.8c-1.12,0.24-1.77-0.15-1.93-0.99
			c-0.18-0.98,0.45-2.04,1.4-2.26C11.13,19.42,11.59,19.42,12.28,19.34z M12.13,9.19c-2.11,1.94-1.87,5.29,0.4,7.29
			c2.31,2.04,5.77,1.66,7.73-0.84c1.63-2.08,1.33-5.27-0.49-6.55c0.93,2.39,0.77,4.43-1.46,5.87c-1.54,1-3.16,0.96-4.66-0.04
			C11.53,13.51,11.25,11.51,12.13,9.19z M17.31,10.79c1.13-1,1.2-2.11,1.04-3.24c-0.14-0.95-0.57-1.76-1.56-2.13
			C15.65,5,14.55,5.41,13.95,6.51c-0.72,1.31-0.41,3.26,0.76,4.15c-0.42-1.33-0.66-2.61,0.61-3.45c0.34-0.22,1.1-0.17,1.46,0.06
			C18.04,8.12,17.6,9.39,17.31,10.79z"/>
		<path class="st0" d="M12.28,19.34c-0.69,0.07-1.15,0.08-1.59,0.18c-0.94,0.22-1.58,1.28-1.4,2.26c0.16,0.84,0.81,1.23,1.93,0.99
			c0.72-0.16,1.42-0.48,2.1-0.8c1.79-0.85,3.55-1.74,5.33-2.6c1.09-0.52,2.22-0.83,3.43-0.51c1.16,0.31,1.87,1.09,2.08,2.23
			c0.23,1.27-0.17,2.38-1.25,3.13c-0.94,0.65-1.94,0.61-3.04-0.08c0.59-0.11,1.06-0.16,1.5-0.3c0.98-0.32,1.54-1.36,1.3-2.31
			c-0.2-0.78-1.06-1.18-2.13-0.89c-0.58,0.15-1.14,0.42-1.69,0.68c-2.14,1.02-4.23,2.13-6.41,3.07c-1.37,0.59-2.78,0.48-3.9-0.66
			c-1-1.02-1.03-2.65-0.14-3.87C9.26,18.69,10.46,18.48,12.28,19.34z"/>
		<path class="st0" d="M12.13,9.19c-0.89,2.32-0.6,4.32,1.52,5.73c1.5,1.01,3.12,1.04,4.66,0.04c2.22-1.43,2.39-3.48,1.46-5.87
			c1.82,1.28,2.13,4.47,0.49,6.55c-1.96,2.5-5.42,2.88-7.73,0.84C10.26,14.48,10.02,11.13,12.13,9.19z"/>
		<path class="st0" d="M17.31,10.79c0.29-1.4,0.73-2.68-0.53-3.52c-0.36-0.24-1.12-0.29-1.46-0.06c-1.27,0.84-1.02,2.12-0.61,3.45
			c-1.17-0.9-1.47-2.84-0.76-4.15c0.6-1.09,1.69-1.51,2.83-1.08c0.99,0.37,1.42,1.18,1.56,2.13C18.51,8.68,18.44,9.79,17.31,10.79z"
			/>
	</g>
</g>
</svg>
